<svg version="1.0" xmlns="http://www.w3.org/2000/svg"
 width="129.000000pt" height="36.000000pt" viewBox="0 0 129.000000 36.000000"
 preserveAspectRatio="xMidYMid meet">

<g transform="translate(0.000000,36.000000) scale(0.100000,-0.100000)"
fill="#12342f" stroke="none">
<path d="M186 340 c-3 -8 -13 -37 -23 -65 l-19 -50 -69 -5 -69 -5 56 -39 56
-38 -19 -56 c-11 -31 -18 -60 -17 -64 2 -5 27 8 56 28 l53 37 51 -36 c29 -20
54 -34 56 -33 2 2 -4 28 -12 57 -9 29 -16 56 -16 61 0 4 23 25 51 45 l50 38
-67 5 -67 5 -23 65 c-13 39 -24 59 -28 50z"/>
<path d="M706 263 l-18 -53 -51 0 -52 0 40 -34 c39 -33 39 -33 27 -73 -17 -56
-16 -57 25 -28 46 31 46 31 90 0 20 -13 38 -23 40 -21 2 1 -4 22 -12 46 -8 23
-15 44 -15 46 0 2 19 16 42 31 l42 28 -54 5 -53 5 -17 50 -17 50 -17 -52z"/>
<path d="M1165 251 c-9 -28 -17 -36 -49 -45 l-40 -11 28 -18 c28 -19 29 -31 9
-83 -6 -16 -2 -15 30 5 l37 23 31 -23 32 -23 -6 26 c-4 15 -9 32 -12 40 -3 7
9 23 27 35 l32 22 -41 7 c-36 5 -43 11 -55 43 l-14 36 -9 -34z"/>
</g>
</svg>
